<?xml version="1.0" encoding="utf-8"?>
<!-- Generator: Adobe Illustrator 25.4.1, SVG Export Plug-In . SVG Version: 6.00 Build 0)  -->
<svg version="1.1" id="image" xmlns="http://www.w3.org/2000/svg" xmlns:xlink="http://www.w3.org/1999/xlink" x="0px" y="0px"
	 viewBox="0 0 400 600" style="enable-background:new 0 0 400 600;" xml:space="preserve">
<style type="text/css">
	.st0{fill:#009245;}
</style>
<path class="st0" d="M399.5,200.5C399.2,90.5,310,1.5,200,1.5S0.8,90.5,0.5,200.5h0v398h399L399.5,200.5L399.5,200.5z M349.5,200.5
	v348h-299v-348h0c0-0.2,0-0.3,0-0.5c0-82.6,66.9-149.5,149.5-149.5S349.5,117.4,349.5,200C349.5,200.2,349.5,200.3,349.5,200.5
	L349.5,200.5z"/>
<path class="st0" d="M299.5,200.5c0-55-44.5-99.5-99.5-99.5s-99.5,44.5-99.5,99.5c0,38,21.3,71.1,52.7,87.8L100.5,499h199
	l-52.7-210.7C278.2,271.6,299.5,238.5,299.5,200.5z"/>
</svg>
